<svg xmlns="http://www.w3.org/2000/svg" width="18" height="21" viewBox="0 0 18 21">
    <path
        d="M15.982 21a4.208 4.208 0 0 1-3.021-.96 4.364 4.364 0 0 1-1-3.239V8.58H9.836V7.018h2.126V3.484h1.818v3.534h3.841l-.289 1.562H13.78v8.246a2.93 2.93 0 0 0 .538 2.037 2.606 2.606 0 0 0 1.895.55h1.435V21zM1.715 21V10.4H0V6.711h1.715v-.154a5.346 5.346 0 0 1 1.55-4.109A6.349 6.349 0 0 1 7.76 1c.41 0 1.873.008 2.078.025L9.259 4.79l-1.065-.025a2.215 2.215 0 0 0-1.561.461 2.119 2.119 0 0 0-.538 1.485h2.586L8.1 10.4H6.095V21z"
        fill="rgba(0,0,0,0.1)"
    />

    <path
        d="M15.982 20a4.208 4.208 0 0 1-3.021-.96 4.364 4.364 0 0 1-1-3.239V7.58H9.836V6.018h2.126V2.484h1.818v3.534h3.841l-.289 1.562H13.78v8.246a2.93 2.93 0 0 0 .538 2.037 2.606 2.606 0 0 0 1.895.55h1.435V20zM1.715 20V9.4H0V5.711h1.715v-.154a5.346 5.346 0 0 1 1.55-4.109A6.349 6.349 0 0 1 7.76 0c.41 0 1.873.008 2.078.025L9.259 3.79l-1.065-.025a2.215 2.215 0 0 0-1.561.461 2.119 2.119 0 0 0-.538 1.485h2.586L8.1 9.4H6.095V20z"
        fill="#fff"
      />
</svg>
