<?xml version="1.0" standalone="no"?>
<!DOCTYPE svg PUBLIC "-//W3C//DTD SVG 20010904//EN"
 "http://www.w3.org/TR/2001/REC-SVG-20010904/DTD/svg10.dtd">
<svg version="1.0" xmlns="http://www.w3.org/2000/svg"
 width="520.000000pt" height="520.000000pt" viewBox="0 0 520.000000 520.000000"
 preserveAspectRatio="xMidYMid meet">
<metadata>
Created by potrace 1.11, written by Peter Selinger 2001-2013
</metadata>
<g transform="translate(0.000000,520.000000) scale(0.100000,-0.100000)"
fill="#000000" stroke="none">
<path d="M2145 4330 c-265 -32 -461 -115 -605 -259 -85 -85 -175 -230 -196
-318 -4 -16 -11 -34 -17 -40 -5 -7 -7 -13 -3 -13 3 0 1 -11 -4 -24 -5 -13 -11
-44 -14 -68 -3 -23 -8 -54 -11 -68 -3 -14 -6 -62 -7 -107 l-2 -83 -50 -1 c-28
0 -95 0 -148 0 l-98 1 0 -319 c0 -246 3 -320 13 -323 6 -2 51 -3 100 -3 57 1
87 -2 87 -9 0 -8 3 -8 8 -1 9 14 50 17 58 4 4 -7 10 -6 18 1 11 8 13 -93 13
-515 1 -391 -2 -523 -11 -518 -8 5 -8 3 1 -8 8 -10 11 -121 10 -401 -2 -440
-14 -390 88 -391 28 0 53 -5 57 -11 6 -8 8 -8 8 0 0 15 120 15 139 0 11 -8 13
-8 8 1 -5 8 6 11 38 10 25 0 45 -6 45 -12 0 -5 5 -3 10 5 8 12 11 13 19 1 7
-11 9 -11 14 0 4 12 7 11 16 -1 7 -10 11 -11 11 -3 0 15 50 13 50 -2 0 -5 5
-3 10 5 8 12 11 13 19 1 7 -11 9 -11 14 0 4 12 7 11 16 -1 7 -10 11 -11 11 -3
0 7 11 12 25 11 14 -1 25 -6 25 -11 0 -4 6 -5 13 0 6 4 28 9 47 9 19 1 45 2
58 3 l22 1 0 920 c0 641 3 920 11 920 5 0 7 -5 3 -12 -5 -8 -3 -8 7 -2 21 13
239 13 239 0 0 -8 3 -7 8 0 4 7 18 12 32 12 45 0 50 2 50 23 0 11 3 18 8 16 4
-3 7 11 6 30 -1 19 2 54 7 76 4 23 10 67 14 97 4 30 9 58 11 61 2 4 6 22 8 40
10 74 18 135 21 151 2 9 7 38 11 65 3 26 8 56 10 65 2 15 -11 17 -134 17 -75
0 -176 0 -224 0 l-88 1 0 31 c0 21 4 28 13 23 9 -5 9 -4 0 6 -12 14 -6 42 25
112 38 86 116 140 223 153 30 4 57 9 61 11 4 2 10 0 13 -6 4 -6 12 -7 18 -3
10 7 132 10 132 3 0 -1 14 -2 32 -3 17 -1 31 0 30 3 0 3 2 19 6 35 9 39 15 79
22 140 4 28 10 51 14 53 5 1 7 17 4 35 -2 18 1 52 7 77 5 25 12 63 15 85 3 22
8 60 11 85 3 25 10 65 14 90 5 24 6 48 4 52 -6 9 -471 7 -549 -2z"/>
<path d="M3220 3602 l0 -307 -182 0 -183 0 -3 -136 -3 -137 46 -4 c25 -2 45 0
45 4 0 4 14 3 30 -2 17 -5 30 -6 30 -2 0 4 40 5 90 2 50 -3 90 -2 90 2 0 3 9
4 20 1 20 -5 20 -14 21 -752 0 -817 2 -868 28 -959 5 -18 10 -36 10 -40 6 -58
96 -218 138 -245 6 -4 18 -13 25 -20 32 -30 103 -71 141 -81 15 -3 27 -11 27
-17 0 -6 4 -8 9 -5 5 4 20 2 34 -3 67 -26 182 -36 392 -36 l180 1 3 137 c1 75
-1 137 -5 138 -4 0 -91 2 -193 3 -189 3 -240 10 -314 48 -67 34 -98 75 -132
174 -8 25 -13 55 -11 65 3 11 2 19 -2 19 -4 0 -8 19 -10 43 -7 92 -6 1429 1
1433 4 3 4 15 0 27 -5 12 -7 28 -6 35 1 6 2 17 3 23 0 6 10 9 21 6 11 -3 23
-1 26 4 3 6 11 5 20 -2 8 -6 14 -7 14 -2 0 7 15 8 40 3 22 -4 40 -5 40 -1 0 6
180 4 248 -2 17 -2 32 0 32 4 0 4 14 4 30 -1 17 -5 30 -6 30 -2 0 4 27 6 59 5
l59 -2 7 60 c4 32 10 57 13 55 6 -3 11 36 16 129 l1 30 -327 0 c-213 0 -328 3
-329 10 -4 38 -3 51 6 57 7 5 7 8 0 8 -6 0 -10 96 -9 270 l0 270 -158 0 -158
0 0 -308z"/>
</g>
</svg>
