<svg xmlns="http://www.w3.org/2000/svg" class="block max-w-full" width="260" viewBox="0 0 302 160">
    <defs>
        <linearGradient id="a" x1=".98" y1=".5" x2=".018" y2=".5" gradientUnits="objectBoundingBox">
            <stop offset="0" stop-color="#711ca5"/>
            <stop offset="1" stop-color="#3529b3"/>
        </linearGradient>
    </defs>

    <path d="M4 160a4 4 0 0 1-4-4V4a4 4 0 0 1 4-4h128a4 4 0 0 1 4 4v152a4 4 0 0 1-4 4zm-.8-22.4v19.2h129.6V3.2H3.2zm48 9.6a7.2 7.2 0 0 1 0-14.4h33.6a7.2 7.2 0 0 1 0 14.4zm-29.989-34.812A9.6 9.6 0 1 1 28 115.2a9.541 9.541 0 0 1-6.789-2.812zm.389-6.788a6.4 6.4 0 1 0 6.4-6.4 6.408 6.408 0 0 0-6.4 6.4zm33.6 7.2a1.6 1.6 0 0 1-1.6-1.6V100a1.6 1.6 0 0 1 1.6-1.6H116a1.6 1.6 0 0 1 1.6 1.6v11.2a1.6 1.6 0 0 1-1.6 1.6zm1.6-3.2h57.6v-8H56.8zM21.211 77.188A9.6 9.6 0 1 1 28 80a9.54 9.54 0 0 1-6.789-2.812zM21.6 70.4A6.4 6.4 0 1 0 28 64a6.408 6.408 0 0 0-6.4 6.4zm33.6 7.2a1.6 1.6 0 0 1-1.6-1.6V64.8a1.6 1.6 0 0 1 1.6-1.6H116a1.6 1.6 0 0 1 1.6 1.6V76a1.6 1.6 0 0 1-1.6 1.6zm1.6-3.2h57.6v-8H56.8zm-32.8-4a4 4 0 1 1 4 4 4 4 0 0 1-4-4zm-2.789-28.411A9.6 9.6 0 1 1 28 44.8a9.541 9.541 0 0 1-6.789-2.811zM21.6 35.2a6.4 6.4 0 1 0 6.4-6.4 6.408 6.408 0 0 0-6.4 6.4zm33.6 7.2a1.6 1.6 0 0 1-1.6-1.6V29.6a1.6 1.6 0 0 1 1.6-1.6H116a1.6 1.6 0 0 1 1.6 1.6v11.2a1.6 1.6 0 0 1-1.6 1.6zm1.6-3.2h57.6v-8H56.8z" transform="translate(82.624)" fill="url(#a)"/>
    <path d="M269.866 157.685a4 4 0 0 1-1.034-.137L218.624 144.1v-2.436l52.408 14.042 3.805-14.2 25.426-94.889-81.639-21.884v-2.435l80.657 21.612a4 4 0 0 1 2.828 4.9l-28.38 105.912a4.005 4.005 0 0 1-3.863 2.963zm-29.724-17.755a5.311 5.311 0 0 1-1.374-.182l-20.144-5.4v-10.961l22.884 6.132a5.26 5.26 0 0 1 3.215 2.467 5.26 5.26 0 0 1 .528 4.017 5.3 5.3 0 0 1-5.109 3.928zm27.636-18.636a1.179 1.179 0 0 1-.3-.04l-43.184-11.571a1.177 1.177 0 0 1-.831-1.44l2.132-7.956a1.177 1.177 0 0 1 1.135-.872 1.174 1.174 0 0 1 .305.041l43.183 11.571a1.166 1.166 0 0 1 .714.547 1.168 1.168 0 0 1 .119.893l-2.132 7.956a1.179 1.179 0 0 1-1.141.872zm-40.218-19.261l-1.523 5.682 40.908 10.962 1.523-5.683-40.909-10.961zm46.917-5.739a1.174 1.174 0 0 1-.3-.04l-43.183-11.571a1.169 1.169 0 0 1-.714-.548 1.169 1.169 0 0 1-.118-.892l2.132-7.956a1.178 1.178 0 0 1 1.136-.871 1.182 1.182 0 0 1 .3.04l43.183 11.571a1.166 1.166 0 0 1 .714.547 1.168 1.168 0 0 1 .117.893l-2.131 7.956a1.179 1.179 0 0 1-1.137.871zm-40.218-19.261l-1.522 5.682 40.908 10.961 1.523-5.682-40.909-10.961zm-15.634 1.685v-8.647a7.23 7.23 0 0 1 .531.792 7.019 7.019 0 0 1 .7 5.356 7.026 7.026 0 0 1-1.233 2.5zm62.552-7.425a1.179 1.179 0 0 1-.3-.04l-43.183-11.571a1.167 1.167 0 0 1-.713-.548 1.169 1.169 0 0 1-.118-.892l2.131-7.955a1.177 1.177 0 0 1 1.136-.871 1.182 1.182 0 0 1 .3.04l43.184 11.571a1.178 1.178 0 0 1 .831 1.44l-2.131 7.954a1.178 1.178 0 0 1-1.138.872zm-40.219-19.26l-1.523 5.682 40.909 10.962 1.523-5.683-40.909-10.961zm-21.2 4.422a7.057 7.057 0 0 1-1.128-.091v-2.4a4.69 4.69 0 0 0 1.115.135 4.714 4.714 0 0 0 4.547-3.489 4.673 4.673 0 0 0-.472-3.57 4.674 4.674 0 0 0-2.856-2.193 4.7 4.7 0 0 0-1.216-.161 4.686 4.686 0 0 0-1.118.136v-2.4a6.986 6.986 0 0 1 1.105-.088 7.1 7.1 0 0 1 1.838.244 7.014 7.014 0 0 1 4.287 3.289 7.018 7.018 0 0 1 .7 5.356 7.012 7.012 0 0 1-3.289 4.286 7.041 7.041 0 0 1-3.519.946z" fill="#711ca5" opacity=".25"/>
    <path d="M32.382 157.686a4.006 4.006 0 0 1-3.865-2.965L.138 48.808a3.971 3.971 0 0 1 .4-3.034 3.973 3.973 0 0 1 2.427-1.865l79.658-21.344V25L1.983 46.608l25.577 95.455 3.654 13.638 51.408-13.775v2.436l-49.208 13.185a4 4 0 0 1-1.032.139zm29.721-17.756a5.3 5.3 0 0 1-5.11-3.924 5.3 5.3 0 0 1 3.743-6.484l21.884-5.863v10.961l-19.143 5.129a5.311 5.311 0 0 1-1.374.181zm-23.031-18.25a7.051 7.051 0 0 1-3.52-.95 7.016 7.016 0 0 1-3.288-4.286 7.014 7.014 0 0 1 .706-5.356 7.013 7.013 0 0 1 4.286-3.288 7.12 7.12 0 0 1 1.839-.243 7.04 7.04 0 0 1 3.517.949 7.01 7.01 0 0 1 3.29 4.285 7.013 7.013 0 0 1-.706 5.356 7.013 7.013 0 0 1-4.285 3.29 7.111 7.111 0 0 1-1.835.243zm.009-11.769a4.7 4.7 0 0 0-1.216.161 4.674 4.674 0 0 0-2.856 2.194 4.674 4.674 0 0 0-.473 3.57 4.715 4.715 0 0 0 4.548 3.488 4.7 4.7 0 0 0 1.216-.161 4.676 4.676 0 0 0 2.856-2.194 4.669 4.669 0 0 0 .472-3.569 4.714 4.714 0 0 0-4.543-3.489zm20.386 4.684a1.179 1.179 0 0 1-1.137-.872l-2.132-7.955a1.179 1.179 0 0 1 .832-1.441l25.589-6.857v2.436l-23.844 6.389 1.524 5.682 22.32-5.98v2.435l-22.849 6.123a1.176 1.176 0 0 1-.299.045zM32.373 96.679a7.053 7.053 0 0 1-3.519-.949 7.015 7.015 0 0 1-3.288-4.286 7.016 7.016 0 0 1 .7-5.357 7.013 7.013 0 0 1 4.286-3.288 7.1 7.1 0 0 1 1.839-.244 7.05 7.05 0 0 1 3.517.948 7.017 7.017 0 0 1 3.288 4.286 7.022 7.022 0 0 1-.7 5.358 7.02 7.02 0 0 1-4.286 3.288 7.106 7.106 0 0 1-1.833.245zm.01-11.769a4.705 4.705 0 0 0-1.218.161 4.711 4.711 0 0 0-3.327 5.764 4.714 4.714 0 0 0 4.547 3.489 4.708 4.708 0 0 0 1.217-.161 4.712 4.712 0 0 0 3.328-5.764 4.713 4.713 0 0 0-4.543-3.488zm0 7.649a2.946 2.946 0 0 1-2.839-2.181 2.922 2.922 0 0 1 .294-2.231 2.922 2.922 0 0 1 1.786-1.37 2.949 2.949 0 0 1 .764-.1 2.943 2.943 0 0 1 2.838 2.179 2.947 2.947 0 0 1-2.08 3.6 2.952 2.952 0 0 1-.76.103zm20.387-2.964a1.179 1.179 0 0 1-1.137-.872l-2.132-7.955a1.17 1.17 0 0 1 .118-.893 1.168 1.168 0 0 1 .714-.548l32.288-8.651v2.435l-30.542 8.184 1.522 5.682 29.02-7.776v2.437l-29.547 7.917a1.189 1.189 0 0 1-.301.045zM25.676 71.679a7.052 7.052 0 0 1-3.519-.949 7.012 7.012 0 0 1-3.289-4.286 7.017 7.017 0 0 1 .705-5.357 7.011 7.011 0 0 1 4.286-3.288 7.1 7.1 0 0 1 1.838-.244 7.056 7.056 0 0 1 3.518.948 7.018 7.018 0 0 1 3.289 4.286 7.014 7.014 0 0 1-.705 5.357 7.01 7.01 0 0 1-4.285 3.289 7.109 7.109 0 0 1-1.836.245zm.008-11.77a4.7 4.7 0 0 0-1.215.161 4.674 4.674 0 0 0-2.856 2.194 4.674 4.674 0 0 0-.473 3.57 4.715 4.715 0 0 0 4.547 3.488 4.7 4.7 0 0 0 1.216-.161 4.674 4.674 0 0 0 2.856-2.194 4.674 4.674 0 0 0 .473-3.57 4.715 4.715 0 0 0-4.547-3.488zm20.387 4.684a1.18 1.18 0 0 1-1.137-.871l-2.131-7.955a1.18 1.18 0 0 1 .831-1.441L82.621 43.88v2.436L45.38 56.294l1.523 5.682 35.719-9.571v2.436l-36.247 9.712a1.181 1.181 0 0 1-.302.041z" fill="#3529b3" opacity=".25"/>
</svg>
